<?xml version="1.0" encoding="UTF-8"?>
<!-- Generated by Pixelmator Pro 2.3.8 -->
<svg width="1305" height="1063" viewBox="0 0 1305 1063" xmlns="http://www.w3.org/2000/svg" xmlns:xlink="http://www.w3.org/1999/xlink">
    <path id="Shape" fill="#ffffff" fill-rule="evenodd" stroke="none" d="M 60.5 376.904236 C 76.775002 384.883118 85.863304 388.941406 91.196236 391.070313 C 96.529167 393.19928 106.242081 396.495789 112.780495 398.395874 C 119.318909 400.295959 128.225037 402.585205 132.571899 403.483093 C 136.918747 404.380981 144.980835 405.724487 150.48764 406.468689 C 155.994431 407.212891 163.987503 408.125305 168.25 408.496216 C 173.024261 408.911682 176 408.800415 176 408.206482 C 176 407.676208 172.512497 404.622375 168.25 401.420166 C 163.987503 398.218018 155.841019 391.564575 150.146713 386.634766 C 144.452393 381.704956 135.95108 373.35791 131.254883 368.085754 C 126.558693 362.813599 120.153015 355.125 117.020042 351 C 113.88707 346.875 108.88839 339.900024 105.911865 335.5 C 102.935341 331.099976 99.402405 325.474976 98.06089 323 C 96.719383 320.525024 94.452827 316.474976 93.024109 314 C 91.59539 311.525024 89.1343 306.575012 87.555023 303 C 85.975754 299.424988 83.439804 293.799988 81.919586 290.5 C 80.399368 287.200012 77.331047 278.875 75.101089 272 C 72.87114 265.125 69.713081 253.650024 68.083191 246.5 C 66.453308 239.349976 64.530312 228.775024 63.809879 223 C 63.038795 216.81897 62.5 202.011047 62.5 187 C 62.5 165.177063 62.825718 159.553345 64.758827 148 C 66.001183 140.575012 67.854401 131.125 68.87709 127 C 69.89978 122.875 71.730362 116.185486 72.945045 112.134338 C 74.159729 108.083252 76.529915 101.108276 78.212128 96.634338 C 79.894333 92.160461 82.334259 86.025024 83.634186 83 C 84.934113 79.974976 87.454826 74.575012 89.235771 71 C 91.016716 67.424988 93.574036 62.632874 94.918709 60.350891 L 97.363564 56.201782 L 101.019745 60.350891 C 103.030647 62.632874 109.969048 70.575012 116.438408 78 C 122.907768 85.424988 135.039459 98.477295 143.397705 107.005127 C 151.755951 115.532959 164.211929 127.686401 171.077652 134.012817 C 177.943375 140.339172 190.747116 151.528076 199.530396 158.877014 C 208.313675 166.225952 222.698608 177.640015 231.496902 184.241577 C 240.295197 190.84314 254.57869 200.920288 263.238007 206.635193 C 271.897308 212.350037 281.367249 218.556763 284.282288 220.427795 C 287.197357 222.298828 298.563843 228.957764 309.541199 235.225403 C 320.518524 241.493042 335.799988 249.728638 343.5 253.526733 C 351.200012 257.324829 362.526001 262.793274 368.668915 265.678833 C 374.811829 268.564453 386.061829 273.45929 393.668915 276.556335 C 401.276001 279.653381 414.25 284.653381 422.5 287.667419 C 430.75 290.681458 443.575012 295.111572 451 297.512085 C 458.424988 299.912598 470.297729 303.497009 477.38382 305.477417 C 484.46994 307.457825 496.619934 310.594482 504.38382 312.447815 C 512.147705 314.301086 524.125 316.952759 531 318.340271 C 537.875 319.727844 551.825012 322.241943 562 323.927063 C 572.174988 325.612183 589.5 327.858887 600.5 328.919678 C 611.5 329.980408 625.398438 331.165344 631.385437 331.552856 C 642.270874 332.257385 642.270874 332.257385 641.526062 328.378662 C 641.116455 326.245422 639.931824 319.549988 638.893677 313.5 C 637.745178 306.80719 636.747192 294.517395 636.344971 282.113525 C 635.924011 269.133118 636.110107 256.912109 636.857239 248.4729 C 637.502625 241.183105 638.898376 230.557007 639.958862 224.859375 C 641.019348 219.161743 642.989563 210.224976 644.337158 205 C 645.684692 199.775024 648.248718 191.22937 650.034912 186.009766 C 651.821167 180.7901 654.231506 174.291504 655.391296 171.56842 C 656.551086 168.845398 659.903381 161.640991 662.84082 155.558716 C 665.778259 149.47644 671.329468 139.424316 675.176758 133.220642 C 679.024109 127.017029 684.757874 118.453613 687.918518 114.190918 C 691.079163 109.928162 696.435791 103.221252 699.822266 99.286621 C 703.208679 95.35199 709.471497 88.657288 713.739685 84.409546 C 718.007874 80.161743 724.472351 74.169373 728.105286 71.09314 C 731.738159 68.016907 737.138184 63.616882 740.105286 61.315308 C 743.072388 59.013733 748.424988 55.185913 752 52.80896 C 755.575012 50.432007 761.650024 46.615295 765.5 44.327271 C 769.349976 42.039307 776.549988 38.12207 781.5 35.622437 C 786.450012 33.122681 794.775024 29.311768 800 27.153564 C 805.224976 24.995483 814 21.792969 819.5 20.036865 C 825 18.280884 834 15.763062 839.5 14.441895 C 845 13.120605 855.712158 11.130737 863.304871 10.019775 C 874.026794 8.45105 882.17804 8.004395 899.804871 8.019531 C 913.698853 8.031494 926.571899 8.5896 933 9.458862 C 938.775024 10.239746 948.450012 11.843872 954.5 13.023438 C 960.549988 14.203125 969.775024 16.515259 975 18.161499 C 980.224976 19.807861 988.775024 22.729004 994 24.653076 C 999.224976 26.577148 1009.125 30.885986 1016 34.228271 C 1022.875 37.570557 1033.224976 43.244202 1039 46.836487 C 1044.775024 50.428772 1054.513428 57.099487 1060.640869 61.660339 C 1066.768311 66.22113 1076.569214 74.523743 1082.420776 80.110535 C 1093.059937 90.268311 1093.059937 90.268311 1098.591797 89.618164 C 1101.634399 89.260559 1112.010498 86.946411 1121.64978 84.475525 C 1131.289185 82.0047 1145.548828 77.915405 1153.337891 75.388184 C 1161.127075 72.860962 1170.425049 69.673767 1174 68.305481 C 1177.574951 66.937256 1185 64.021851 1190.5 61.826904 C 1196 59.631958 1205.900024 55.326599 1212.5 52.25946 C 1219.099976 49.192322 1228.324951 44.687683 1233 42.249146 C 1237.675049 39.810608 1245.228394 35.799683 1249.785278 33.336182 C 1254.342163 30.872559 1258.466553 29.001587 1258.950562 29.178467 C 1259.434692 29.355347 1258.809448 32.650024 1257.561279 36.5 C 1256.313232 40.349976 1253.25354 48.052734 1250.762085 53.617188 C 1248.27063 59.181641 1243.648438 68.406616 1240.490601 74.117188 C 1237.332764 79.827698 1231.821289 88.775024 1228.24292 94 C 1224.664429 99.224976 1218.766846 107.325012 1215.136963 112 C 1211.50708 116.674988 1202.903931 126.142212 1196.018677 133.038208 C 1189.133423 139.934204 1179.675049 148.631653 1175 152.365784 C 1170.324951 156.099915 1162.331055 161.932739 1157.235718 165.327576 C 1148.815308 170.937805 1148.229492 171.527344 1150.804932 171.799866 C 1152.363403 171.964783 1160.582397 170.927124 1169.069214 169.493835 C 1177.556152 168.060608 1189.449951 165.819641 1195.5 164.513916 C 1201.550049 163.208191 1211.900024 160.731262 1218.5 159.009521 C 1225.099976 157.287842 1238.150024 153.381592 1247.5 150.328979 C 1256.849976 147.276367 1271.19458 142.110596 1279.376709 138.849487 C 1287.55896 135.588379 1294.437378 133.104126 1294.662231 133.328918 C 1294.887085 133.553711 1293.103149 136.672241 1290.697876 140.258972 C 1288.292725 143.845703 1282.803101 151.442261 1278.498657 157.140198 C 1274.194092 162.838074 1267.509033 171.325012 1263.642822 176 C 1259.776611 180.674988 1252.537842 188.961975 1247.556641 194.415466 C 1242.575439 199.869019 1235.568237 207.294006 1231.984863 210.915466 C 1228.401611 214.536987 1221.20166 221.523315 1215.984863 226.440674 C 1210.768188 231.358032 1201.324951 239.688477 1195 244.952759 C 1188.675049 250.217041 1179.392456 257.589417 1174.372192 261.335815 L 1165.244385 268.147461 L 1164.672485 310.82373 C 1164.31311 337.643677 1163.526978 359.259033 1162.556763 369 C 1161.707642 377.525024 1160.106445 391.025024 1158.998779 399 C 1157.890991 406.974976 1155.894775 419.799988 1154.562744 427.5 C 1153.230713 435.200012 1150.804199 447.799988 1149.170654 455.5 C 1147.537109 463.200012 1144.320068 476.924988 1142.021729 486 C 1139.723389 495.075012 1135.348633 510.599976 1132.300049 520.5 C 1129.251343 530.400024 1124.370972 545.25 1121.45459 553.5 C 1118.538208 561.75 1114.796021 572.099976 1113.13855 576.5 C 1111.481201 580.900024 1108.799316 587.650024 1107.179077 591.5 C 1105.558838 595.349976 1102.545776 602.325012 1100.483398 607 C 1098.421143 611.674988 1095.21167 618.875 1093.35144 623 C 1091.491089 627.125 1086.721802 637.025024 1082.752808 645 C 1078.783936 652.974976 1072.808472 664.450012 1069.474121 670.5 C 1066.139771 676.549988 1060.793701 686 1057.593994 691.5 C 1054.394165 697 1050.701538 703.1875 1049.388062 705.25 C 1048.074585 707.3125 1045.939575 710.6875 1044.643433 712.75 C 1043.34729 714.8125 1038.087158 722.799988 1032.954224 730.5 C 1027.821167 738.200012 1019.551086 750.125 1014.576111 757 C 1009.601135 763.875 1001.060608 775.125 995.597168 782 C 990.133728 788.875 979.551819 801.471558 972.081787 809.992432 C 964.611816 818.513245 950.625 833.399902 941 843.073853 C 931.375 852.747803 918.982178 864.676208 913.460388 869.581421 C 907.938599 874.486633 900.963562 880.57489 897.960388 883.110901 C 894.957153 885.646912 889.575012 890.180786 886 893.186096 C 882.424988 896.191467 872.299988 904.053833 863.5 910.65802 C 854.700012 917.262207 841.424988 926.71936 834 931.67395 C 826.575012 936.62854 815.775024 943.601318 810 947.169067 C 804.224976 950.736816 796.349976 955.487427 792.5 957.726074 C 788.650024 959.964661 780.099976 964.736145 773.5 968.329346 C 766.900024 971.922546 755.875 977.57428 749 980.888733 C 742.125 984.203186 733.064575 988.480103 728.865784 990.393005 C 724.666931 992.305908 716.34198 995.882935 710.365784 998.341919 C 704.389587 1000.800903 692.974976 1005.275879 685 1008.286316 C 677.025024 1011.296753 664.875 1015.571899 658 1017.786621 C 651.125 1020.001404 640.099976 1023.412781 633.5 1025.367432 C 626.900024 1027.322144 614.974976 1030.536865 607 1032.511108 C 599.025024 1034.485474 586.200012 1037.415405 578.5 1039.022095 C 570.799988 1040.628784 557.974976 1043.057129 550 1044.418335 C 542.025024 1045.779541 528.299988 1047.800293 519.5 1048.908813 C 510.700012 1050.017212 496.299988 1051.613159 487.5 1052.455078 C 478.700012 1053.297119 461.375 1054.433228 449 1054.979736 C 436.625 1055.526245 419.075012 1055.888794 410 1055.7854 C 400.924988 1055.682129 389.899994 1055.476196 385.5 1055.328003 C 381.100006 1055.17981 370.299988 1054.564087 361.5 1053.959595 C 352.700012 1053.355225 336.274994 1051.766846 325 1050.429932 C 313.725006 1049.093018 298.875 1047.077393 292 1045.950562 C 285.125 1044.823853 272.75 1042.539307 264.5 1040.873779 C 256.25 1039.208252 243.199997 1036.288086 235.5 1034.384521 C 227.800003 1032.480957 215.875 1029.346191 209 1027.418579 C 202.125 1025.490845 190.875 1022.085144 184 1019.850342 C 177.125 1017.61554 166.100006 1013.854614 159.5 1011.492798 C 152.899994 1009.130981 141.746658 1004.917175 134.714798 1002.128845 C 127.68293 999.340454 116.43293 994.620728 109.71479 991.640625 C 102.996658 988.660461 92.550003 983.797363 86.5 980.83374 C 80.449997 977.870056 70.550003 972.882874 64.5 969.751038 C 58.450001 966.619263 49.900002 961.984619 45.5 959.451965 C 41.099998 956.91925 35.700001 953.824951 33.5 952.575684 C 31.299999 951.326416 27.025 948.815491 24 946.995728 C 20.975 945.176025 17.905357 943.146851 17.178572 942.48645 C 16.090145 941.497437 16.153408 940.989441 17.53735 939.60553 C 18.922255 938.220581 20.296898 938.050171 25.358778 938.635803 C 28.73645 939.02655 40.275002 939.605896 51 939.923157 C 61.724998 940.240417 79.949997 940.218201 91.5 939.873779 C 103.050003 939.529419 119.025002 938.492493 127 937.56958 C 134.975006 936.646729 147.197266 935.032227 154.160583 933.981873 C 161.123901 932.931519 174.398895 930.451538 183.660583 928.470886 C 192.922256 926.490234 208.295074 922.639832 217.822403 919.914429 C 227.349731 917.189026 240.849731 912.915161 247.822403 910.417053 C 254.795074 907.918945 261.850006 905.298218 263.5 904.593262 C 265.149994 903.888306 268.975006 902.389038 272 901.261475 C 275.024994 900.133911 281.776733 897.251282 287.003876 894.855713 C 292.231018 892.460083 301.231018 888.1828 307.003876 885.350708 C 312.776733 882.518555 322.899994 877.183228 329.5 873.494385 C 336.100006 869.805542 345.325012 864.42041 350 861.527344 C 354.674988 858.634277 362.549988 853.532532 367.5 850.190125 C 372.450012 846.847717 380.96524 840.816895 386.422729 836.78833 C 391.880249 832.759705 396.507141 828.978516 396.704773 828.385742 C 396.937622 827.687134 393.414368 827.084534 386.692413 826.673279 C 380.988037 826.324219 371.411133 825.322083 365.4104 824.446228 C 359.409668 823.570374 350.674988 821.947998 346 820.840881 C 341.325012 819.733826 333 817.467896 327.5 815.805542 C 322 814.143188 313.450012 811.202637 308.5 809.271057 C 303.549988 807.339478 295 803.588501 289.5 800.935547 C 284 798.282532 276.575012 794.449646 273 792.41803 C 269.424988 790.386353 262.225006 785.88739 257 782.420288 C 251.774994 778.953125 242.774994 772.327148 237 767.695923 C 231.225006 763.064758 221.04628 753.631958 214.38063 746.734253 C 207.714966 739.836548 198.42012 729.078979 193.725403 722.828491 C 189.030685 716.578003 182.919479 707.803955 180.144958 703.330444 C 177.370438 698.857056 172.37265 690.002808 169.038773 683.654541 C 165.70491 677.306152 160.991119 667.024414 158.563705 660.80603 C 156.136276 654.587769 153.827454 648.202026 153.432968 646.615601 C 152.730804 643.79187 152.786987 643.743469 156.107864 644.31134 C 157.973541 644.630371 164.899994 645.478271 171.5 646.195679 C 178.100006 646.913086 192.050003 647.5 202.5 647.5 C 212.949997 647.5 226.562622 646.927246 232.750275 646.227295 C 238.937927 645.527344 248.387924 644.068481 253.750275 642.985352 C 259.11261 641.902283 264.512512 640.778931 265.75 640.489014 C 266.987488 640.199097 268 639.588867 268 639.132935 C 268 638.677063 263.837494 637.271362 258.75 636.009216 C 253.662506 634.74707 244.424362 631.972412 238.220795 629.843384 C 232.017227 627.714355 222.792221 624.120361 217.720795 621.856689 C 212.649353 619.593079 205.125 615.926147 201 613.70813 C 196.875 611.48999 190.125 607.643188 186 605.159668 C 181.875 602.676147 174.449997 597.742188 169.5 594.195313 C 164.550003 590.648438 156.809494 584.623535 152.298889 580.80658 C 147.788284 576.989624 139.215942 568.788452 133.249252 562.581909 C 127.282562 556.375244 119.723061 547.751892 116.450363 543.418823 C 113.177666 539.085815 108.447899 532.606445 105.939774 529.020264 C 103.431656 525.434143 99.315407 519.072754 96.792564 514.88385 C 94.269722 510.694946 89.669273 502.144958 86.569351 495.88385 C 83.469429 489.622742 79.571754 480.900024 77.907852 476.5 C 76.24395 472.099976 73.797836 465.265991 72.472038 461.313293 C 71.14624 457.360596 68.726257 448.810608 67.094299 442.313293 C 65.462341 435.815979 63.398243 425.549988 62.507416 419.5 C 61.616589 413.450012 60.64526 404.224976 60.348907 399 C 60.052559 393.775024 59.965317 386.665955 60.155045 383.202148 L 60.5 376.904236 Z"/>
</svg>
