<?xml version="1.0" encoding="UTF-8"?>
<!-- Generated by Pixelmator Pro 2.3.8 -->
<svg width="1027" height="1006" viewBox="0 0 1027 1006" xmlns="http://www.w3.org/2000/svg" xmlns:xlink="http://www.w3.org/1999/xlink">
    <path id="Shape" fill="#ffffff" fill-rule="evenodd" stroke="#ffffff" stroke-width="9" stroke-linecap="round" stroke-linejoin="round" d="M 512.506104 1005.891541 C 305.964905 1005.806396 247.245728 1005.509155 239 1004.507324 C 233.224976 1003.805664 223.549988 1002.228577 217.5 1001.002808 C 211.450012 999.776978 201.775024 997.424194 196 995.774414 C 190.224976 994.124634 179.875 990.58429 173 987.906982 C 166.125 985.229736 155.325012 980.418823 149 977.216064 C 142.674988 974.013306 133.095215 968.623108 127.711609 965.237793 C 122.328064 961.852539 113.711792 955.917236 108.564453 952.048462 C 103.417114 948.179565 94.67627 940.948792 89.14032 935.97998 C 83.604431 931.01123 75.562317 923.020508 71.268982 918.2229 C 66.975586 913.425293 60.935059 906.349976 57.84552 902.5 C 54.755981 898.650024 48.775879 890.325012 44.556458 884 C 40.336975 877.674988 33.169983 865.075012 28.629761 856 C 24.089539 846.924988 18.45282 834.099976 16.103638 827.5 C 13.754517 820.900024 10.517578 810.549988 8.910522 804.5 C 7.303406 798.450012 5.08136 788.325012 3.972656 782 C 2.863892 775.674988 1.471191 764.200012 0.877747 756.5 C 0.129822 746.795593 -0.072693 665.792847 0.217651 492.5 C 0.606323 260.538208 0.762146 241.778442 2.37738 232.5 C 3.334839 227 5.188721 217.775024 6.49707 212 C 7.805481 206.224976 10.176941 197.224976 11.767151 192 C 13.3573 186.775024 16.608582 177.562134 18.992249 171.526855 C 21.375854 165.491699 26.198486 154.916626 29.709167 148.026855 C 33.219849 141.137085 40.329895 129.199951 45.509277 121.5 C 50.688721 113.800049 58.704346 103 63.321838 97.5 C 67.939331 92 77.090942 82.324951 83.658691 76 C 90.22644 69.675049 100.182312 60.99231 105.782837 56.705078 C 111.383362 52.417969 120.585876 45.967529 126.232788 42.370972 C 131.879761 38.774414 143.078918 32.561401 151.119873 28.564331 C 159.160767 24.567261 171.31073 19.258423 178.119873 16.766846 C 184.928955 14.275391 195.900024 10.844971 202.5 9.143677 C 209.099976 7.442505 219.674988 5.166992 226 4.086914 C 232.325012 3.006958 243.799988 1.647339 251.5 1.065674 C 260.804749 0.362793 348.85791 0.006714 514.050049 0.004028 C 675.757324 0.001465 767.299561 0.360962 776.050049 1.033081 C 783.44751 1.601318 794.95166 2.966064 801.614746 4.065796 C 808.277832 5.165527 818.491577 7.342773 824.311768 8.904175 C 830.131958 10.465576 839.980347 13.479126 846.197021 15.600952 C 852.413696 17.722656 865.375 23.343384 875 28.091553 C 884.625 32.8396 897.901978 40.306519 904.504395 44.68457 C 911.106934 49.062622 920.331909 55.697144 925.004395 59.427856 C 929.677002 63.158447 939.272705 71.900879 946.328125 78.855469 C 953.383667 85.809937 962.699463 95.87561 967.029907 101.223511 C 971.360352 106.571411 978.561646 116.471436 983.032593 123.223511 C 987.50354 129.975586 994.931641 143.150024 999.539429 152.5 C 1004.147095 161.849976 1009.76355 174.900024 1012.020508 181.5 C 1014.277344 188.099976 1017.626831 199.596313 1019.463745 207.047485 C 1021.300659 214.498535 1023.635254 226.423584 1024.651733 233.547485 C 1026.411011 245.876343 1026.5 258.873535 1026.5 503.5 C 1026.5 742.952759 1026.380615 761.319336 1024.751221 772.5 C 1023.789429 779.099976 1021.83667 789.674988 1020.411743 796 C 1018.986816 802.325012 1015.870483 813.365295 1013.486572 820.533936 C 1011.102661 827.702576 1006.498169 839.43335 1003.254395 846.602295 C 1000.010742 853.771301 994.172852 865.006042 990.281494 871.56842 C 986.390259 878.130798 980.350098 887.505066 976.859253 892.400146 C 973.368286 897.295227 966.417969 906.07019 961.414063 911.900146 C 956.410156 917.730103 948.30542 926.346069 943.403442 931.046875 C 938.501587 935.74762 929.989624 943.172607 924.488037 947.546875 C 918.98645 951.921082 909.538574 958.71698 903.492554 962.648804 C 897.446655 966.580688 887.763306 972.303833 881.973999 975.366882 C 876.184692 978.429932 866.612671 982.961914 860.702881 985.437866 C 854.792969 987.91394 844.326782 991.739868 837.44458 993.940063 C 830.562378 996.140259 819.486572 999.090088 812.831665 1000.495178 C 806.176636 1001.900269 795.057373 1003.713684 788.121948 1004.524963 C 777.289917 1005.792053 738.434326 1005.984741 512.506104 1005.891541 Z M 517 915.578125 C 771.5 915.392822 771.5 915.392822 782.302979 913.177124 C 788.244507 911.958496 799.044556 909.006348 806.302979 906.616699 C 813.561279 904.227112 824.449951 899.783264 830.5 896.741455 C 836.550049 893.699707 845.550049 888.544434 850.5 885.285278 C 855.449951 882.026123 863.550049 875.983948 868.5 871.858154 C 873.449951 867.732422 880.597412 861.013977 884.383179 856.928345 C 888.168823 852.842773 893.848145 846.11554 897.003784 841.979004 C 900.159424 837.842468 904.632202 831.36853 906.943359 827.592407 C 909.254639 823.816406 913.100586 816.85083 915.489868 812.113464 C 917.879272 807.376038 921.207153 800.036743 922.885376 795.803894 C 924.563477 791.571045 927.269287 783.133301 928.898315 777.053345 C 930.527222 770.973389 932.600342 760.486633 933.505127 753.749451 C 935.002197 742.601013 935.118774 719.523499 934.80127 497 C 934.452515 252.5 934.452515 252.5 931.857544 241 C 930.43042 234.675049 927.896362 225.449951 926.226318 220.5 C 924.556396 215.550049 921.401733 207.385376 919.215942 202.356323 C 917.030151 197.327271 912.755371 189.002319 909.716431 183.856323 C 906.67749 178.710327 901.364258 170.675049 897.909424 166 C 894.45459 161.324951 885.974121 151.875 879.063965 145 C 872.153809 138.125 862.224976 129.479492 857 125.787842 C 851.775024 122.096191 843.343018 116.764282 838.262329 113.939209 C 833.181641 111.114136 824.181641 106.842163 818.262329 104.446045 C 812.343018 102.049927 803.449951 98.944946 798.5 97.546143 C 793.550049 96.147339 784.324951 94.013794 778 92.804932 C 766.5 90.607056 766.5 90.607056 525 90.200195 C 353.434082 89.911133 279.011475 90.116455 268 90.909302 C 259.474976 91.523071 248 92.944336 242.5 94.067505 C 237 95.190796 227.114014 97.902588 220.531189 100.09375 C 213.948303 102.284912 203.598328 106.487549 197.531189 109.432983 C 191.46405 112.378418 182.450012 117.455078 177.5 120.714355 C 172.549988 123.973755 164.450012 130.018799 159.5 134.147949 C 154.549988 138.2771 147.071289 145.307861 142.880554 149.771851 C 138.68988 154.235962 132.789246 161.176025 129.768066 165.194214 C 126.746826 169.212402 122.413757 175.544312 120.139038 179.265137 C 117.864258 182.98584 113.782898 190.454346 111.069397 195.861694 C 108.355835 201.269165 104.500427 210.374756 102.501709 216.09668 C 100.503052 221.818481 97.968506 230.263672 96.869385 234.863647 C 95.770325 239.463623 94.233826 248.013672 93.455017 253.863647 C 92.267883 262.781006 92.035889 303.048828 92.019531 503.026245 C 92.006409 663.535828 92.343079 744.324036 93.049011 750.026245 C 93.625977 754.686829 94.96051 762.660217 96.014648 767.744873 C 97.068848 772.82959 99.60907 782.054565 101.659668 788.244873 C 103.710205 794.435181 108.459229 805.575012 112.213013 813 C 115.966736 820.424988 121.937988 830.549988 125.482361 835.5 C 129.026733 840.450012 135.110352 848.214233 139.001526 852.753845 C 142.8927 857.293457 150.22168 864.640015 155.288208 869.079468 C 160.354675 873.518921 169.186218 880.300415 174.913879 884.149414 C 180.641541 887.998413 190.169434 893.575806 196.086975 896.543579 C 202.004578 899.511353 212.028564 903.726563 218.362549 905.910583 C 224.696533 908.094604 234.29364 910.824951 239.689453 911.978027 C 245.085266 913.130981 252.424988 914.454407 256 914.918884 C 259.575012 915.383423 377.025024 915.680054 517 915.578125 Z M 519 761.403076 C 509.925049 761.609131 500.025024 761.593628 497 761.368591 C 493.974976 761.143555 486.324951 760.27179 480 759.431335 C 473.675049 758.59082 463.324951 756.757019 457 755.356201 C 450.675049 753.955444 441.224976 751.456055 436 749.802124 C 430.775024 748.148193 422 744.974792 416.5 742.750122 C 411 740.525391 402.526245 736.723816 397.669434 734.302124 C 392.812744 731.880432 384.150513 727.028564 378.420166 723.520203 C 372.689819 720.011841 363.838501 713.998108 358.750732 710.156372 C 353.662842 706.314636 345 699.144165 339.5 694.221985 C 334 689.299805 325.675049 680.896301 321 675.547546 C 316.325012 670.198792 309.325012 661.564819 305.444458 656.360901 C 301.563904 651.156982 295.596558 642.251404 292.183716 636.570679 C 288.770874 630.890015 283.268188 620.576172 279.955566 613.651062 C 276.642883 606.726013 271.706177 594.394348 268.985046 586.247375 C 266.263855 578.100464 262.924316 566.499451 261.563782 560.467407 C 260.203247 554.435303 258.382141 544.099976 257.516968 537.5 C 256.651733 530.900024 255.672241 519.424988 255.340271 512 C 255.001465 504.422058 255.248291 492.422974 255.903015 484.646606 C 256.544495 477.027283 257.958374 465.552307 259.044983 459.146606 C 260.131653 452.740967 262.634521 441.650024 264.606934 434.5 C 266.579407 427.349976 270.225647 416.325012 272.709717 410 C 275.193787 403.674988 280.108521 392.811951 283.631287 385.859924 C 287.154053 378.907837 293.589478 367.882874 297.93219 361.359924 C 302.274902 354.836975 308.887024 345.674988 312.625793 341 C 316.364563 336.325012 325.065796 326.865784 331.961792 319.979492 C 338.857788 313.093201 349.900024 303.401978 356.5 298.443359 C 363.099976 293.484741 372.775024 286.780884 378 283.545776 C 383.224976 280.310791 393.800049 274.622437 401.5 270.904907 C 409.199951 267.187378 419.935547 262.512695 425.356689 260.516602 C 430.777832 258.520508 441.12793 255.381592 448.356689 253.54126 C 455.585571 251.700806 465.68396 249.486084 470.797729 248.619629 C 475.911377 247.753174 486.261353 246.524536 493.797729 245.889526 C 501.928711 245.204224 513.802124 244.998047 523 245.382202 C 531.525024 245.738159 543.136597 246.690186 548.803589 247.497681 C 554.470459 248.305176 564.370483 250.138306 570.803589 251.571289 C 577.236572 253.004272 588.574951 256.182007 596 258.632935 C 603.425049 261.083984 617.150024 266.841064 626.5 271.426514 C 635.849976 276.011963 648.449951 283.021729 654.5 287.003784 C 660.550049 290.985718 669.775024 297.647339 675 301.807251 C 680.224976 305.967163 689.702026 314.574768 696.059937 320.935303 C 702.417969 327.295898 710.688232 336.325012 714.438354 341 C 718.188477 345.674988 724.790894 354.836975 729.110229 361.359924 C 733.429565 367.882874 739.855835 378.907837 743.390625 385.859924 C 746.925415 392.811951 751.700684 403.224976 754.002197 409 C 756.303589 414.775024 759.731079 424.863281 761.618774 431.418335 C 763.50647 437.97345 766.133301 449.22345 767.456177 456.418335 C 768.779053 463.613281 770.39917 476.025024 771.056396 484 C 771.786377 492.857361 771.987671 504.256165 771.573608 513.291748 C 771.200806 521.427246 770.037354 533.93219 768.988159 541.080505 C 767.939087 548.228821 765.973145 558.672546 764.619385 564.288757 C 763.265747 569.904907 760.545044 579.320801 758.573486 585.21283 C 756.601929 591.104919 753.200928 600.048035 751.015625 605.086365 C 748.830322 610.124756 744.514526 619.028992 741.424805 624.873535 C 738.335083 630.718079 733.003418 639.775024 729.576782 645 C 726.150146 650.224976 719.580322 659.224976 714.977051 665 C 710.373779 670.775024 701.858276 680.242737 696.053711 686.03949 C 690.249146 691.836182 681.210449 700.019043 675.967651 704.223572 C 670.724854 708.428101 661.278198 715.290283 654.974976 719.472839 C 648.671753 723.655396 637.211304 730.223938 629.507324 734.069702 C 621.803345 737.915405 610.765381 742.82019 604.978638 744.969116 C 599.191895 747.118042 590.41687 750.048218 585.478638 751.480591 C 580.540405 752.913025 571.099976 755.170959 564.5 756.498291 C 557.900024 757.825623 548.675049 759.387878 544 759.970032 C 539.324951 760.552124 528.074951 761.197021 519 761.403076 Z M 512.5 669.877441 C 519.099976 669.923401 529.234863 669.330505 535.022095 668.559998 C 540.809204 667.789429 549.134155 666.238586 553.522095 665.113708 C 557.909912 663.98877 564.875 661.929993 569 660.538574 C 573.125 659.147217 581.900024 655.296936 588.5 651.982361 C 595.099976 648.667847 604.550049 643.051147 609.5 639.500854 C 614.449951 635.950562 621.998657 629.845459 626.27478 625.93396 C 630.550903 622.0224 637.132935 615.149597 640.901367 610.661011 C 644.669922 606.172485 650.309326 598.56665 653.433594 593.759277 C 656.557739 588.951843 661.291748 580.401855 663.953613 574.759277 C 666.615479 569.116699 670.171631 560.347656 671.856201 555.272583 C 673.540771 550.197449 675.87915 541.197449 677.052368 535.272583 C 678.253662 529.20636 679.432617 518.383606 679.750854 510.5 C 680.092529 502.037598 679.82312 491.951294 679.069824 485 C 678.384521 478.674988 676.544312 468.5271 674.980591 462.449158 C 673.416992 456.371216 670.759888 447.930237 669.07605 443.691406 C 667.392212 439.452576 664.19873 432.372986 661.97937 427.958923 C 659.76001 423.544861 656.002563 416.910828 653.629517 413.216675 C 651.25647 409.522522 646.618408 403.125 643.322754 399 C 640.026978 394.875 633.069702 387.450012 627.862061 382.5 C 622.654419 377.549988 614.454102 370.710022 609.63916 367.299988 C 604.824219 363.890015 595.623169 358.424377 589.192383 355.154175 C 582.761597 351.883972 572.775024 347.603638 567 345.642334 C 561.224976 343.68103 551.324951 341.046692 545 339.788208 C 535.327148 337.863525 530.322388 337.5 513.5 337.5 C 496.904785 337.5 491.627319 337.874084 482.5 339.697449 C 476.449951 340.906067 467.224976 343.287598 462 344.989746 C 456.775024 346.691895 447.455811 350.505127 441.290771 353.463562 C 435.125732 356.421997 426.575684 361.184326 422.290771 364.046509 C 418.005859 366.908752 411.443481 371.735779 407.707764 374.773315 C 403.971924 377.810852 396.855835 384.585693 391.894043 389.82843 C 386.932251 395.071228 379.680542 404.117126 375.779053 409.93042 C 371.877563 415.743652 366.315796 425.450012 363.419556 431.5 C 360.523315 437.549988 356.762085 446.70929 355.061035 451.854004 C 353.360107 456.998718 350.963013 466.670044 349.734253 473.345764 C 347.939575 483.095276 347.5 489.125244 347.5 503.99176 C 347.5 519.180969 347.903564 524.520935 349.750366 533.76947 C 350.988037 539.967712 353.582031 549.930786 355.514893 555.909668 C 357.447754 561.88855 361.736572 572.11731 365.045654 578.640198 C 368.354614 585.163086 374.085571 594.764465 377.781006 599.976563 C 381.47644 605.188721 389.224976 614.246887 395 620.105896 C 400.775024 625.964844 409.550049 633.729065 414.5 637.359619 C 419.449951 640.990173 427.672852 646.272705 432.773193 649.098633 C 437.873413 651.924561 446.496338 655.983582 451.935425 658.118713 C 457.37439 660.253845 466.188843 663.162354 471.523071 664.582092 C 476.857178 666.001831 485.559204 667.75531 490.86084 668.478699 C 496.162354 669.202087 505.900024 669.831482 512.5 669.877441 Z M 785.82373 288.928711 C 779.237305 288.883301 773.327881 288.233398 769.5 287.133423 C 766.199951 286.185181 761.025024 284.088867 758 282.474976 C 754.974976 280.861206 749.109863 276.156616 744.966309 272.020386 C 740.491577 267.553467 736.13269 262.017944 734.230835 258.387085 C 732.469727 255.025024 730.302979 249.440796 729.415771 245.977661 C 728.528564 242.514648 727.734619 236.490479 727.651367 232.590576 C 727.568115 228.690796 728.092285 222.574951 728.816284 219 C 729.540161 215.425049 731.784058 209.125 733.802612 205 C 736.385986 199.720581 739.549316 195.412598 744.486328 190.449829 C 749.07605 185.83606 753.974609 182.118408 758.660522 179.692261 C 762.598755 177.65332 769.071777 175.250854 773.045044 174.353638 C 778.282959 173.170776 782.775269 172.881714 789.384644 173.302124 C 794.641479 173.636597 801.134155 174.788574 804.722778 176.023682 C 808.145264 177.201538 813.545288 179.855103 816.722778 181.92041 C 819.900269 183.985718 824.485474 187.661011 826.912231 190.087769 C 829.338989 192.514526 832.983765 197.052612 835.011841 200.172485 C 837.039917 203.292236 839.779419 209.142212 841.099609 213.172485 C 843.020752 219.036987 843.5 222.613281 843.5 231.084961 C 843.5 239.340454 843.005371 243.19165 841.252563 248.584961 C 840.016479 252.388184 837.703979 257.75 836.11377 260.5 C 834.52356 263.25 831.353638 267.615479 829.069336 270.20105 C 826.785034 272.786621 821.880371 276.920288 818.169922 279.386963 C 814.459473 281.853638 807.986572 285.025757 803.785522 286.435913 C 797.456909 288.560425 794.377441 288.987793 785.82373 288.928711 Z"/>
</svg>
